<svg xmlns="http://www.w3.org/2000/svg" viewBox="-68.0775 -317.268 999.975 1270.78"><path d="M431.9100036621094 885.4349975585938C441.5681915283203 885.4349975585938 446.7810821533203 881.0594024658203 456.4090118408203 873.9309997558594C475.39915466308594 859.8709259033203 476.99688720703125 836.3108520507812 484.7370147705078 830.9319915771484C498.39454650878906 821.44091796875 511.7710876464844 826.4295959472656 532.3990173339844 818.2869873046875C551.9030914306641 810.5879974365234 559.0424194335938 776.6035003662109 576.7060241699219 763.6979827880859C587.7909088134766 755.5990600585938 610.3708953857422 747.8972778320312 617.8590240478516 730.8369903564453C627.8785858154297 708.0093078613281 632.2629699707031 678.1449890136719 617.072021484375 678.1449890136719C609.768310546875 678.1449890136719 606.0520172119141 683.5660247802734 606.0520172119141 694.510986328125C606.0520172119141 728.0675354003906 572.6772155761719 754.0459899902344 542.9100189208984 754.0459899902344C522.56103515625 754.0459899902344 495.36195373535156 736.3899841308594 486.7470245361328 736.3899841308594C481.45098876953125 736.3899841308594 476.2760314941406 739.0054016113281 476.2760314941406 743.7649841308594C476.2760314941406 768.6587371826172 539.2660369873047 771.0769348144531 539.2660369873047 777.0419769287109C539.2660369873047 797.4068145751953 514.4149322509766 804.1089782714844 490.86602783203125 804.1089782714844C469.5399932861328 804.1089782714844 452.79510498046875 782.9859771728516 441.7680206298828 782.9859771728516C437.4864501953125 782.9859771728516 434.69602966308594 787.2660827636719 434.69602966308594 791.8789672851562C434.69602966308594 806.9433288574219 457.6060333251953 811.3246002197266 457.6060333251953 826.3889617919922C457.6060333251953 846.9588165283203 439.9699401855469 868.0179595947266 431.9100341796875 868.0179595947266C427.3610076904297 868.0179595947266 425.35777282714844 885.4349670410156 431.9100341796875 885.4349670410156ZM421.4120330810547 603.5959777832031C421.4120330810547 652.6401977539062 461.3009338378906 695.9999694824219 546.4000396728516 695.9999694824219C718.5475769042969 695.9999694824219 863.8200378417969 488.3252410888672 863.8200378417969 270.7429656982422C863.8200378417969 257.4096374511719 843.8200378417969 257.4096374511719 843.8200378417969 270.7429656982422C843.8200378417969 468.48167419433594 695.0527496337891 675.9999542236328 545.3960266113281 675.9999542236328C493.42835998535156 675.9999542236328 442.66102600097656 642.7320556640625 442.66102600097656 603.595947265625C442.66102600097656 594.2359313964844 421.4120178222656 590.9653167724609 421.4120178222656 603.5959320068359ZM421.4120178222656 603.5959320068359C421.4120178222656 611.5451202392578 441.4120178222656 614.1813812255859 441.4120178222656 603.5959320068359C441.4120178222656 569.5078277587891 458.6378936767578 536.3619384765625 489.3650207519531 536.3619384765625C512.5163116455078 536.3619384765625 531.4210357666016 554.9275207519531 531.4210357666016 577.9999389648438C531.4210357666016 589.1020965576172 524.7357025146484 599.4179382324219 514.4400329589844 599.4179382324219C492.4896697998047 599.4179382324219 500.3572692871094 567.1299438476562 486.43601989746094 567.1299438476562C478.07041931152344 567.1299438476562 476.6020202636719 580.8658447265625 476.6020202636719 592.7119445800781C476.6020202636719 618.1658172607422 494.1176300048828 634.8379516601562 526.5230255126953 634.8379516601562C576.3125915527344 634.8379516601562 601.4963531494141 629.9804077148438 635.0060272216797 613.4259490966797C678.6172027587891 591.8811340332031 734.3510284423828 551.3567504882812 734.3510284423828 528.9349517822266C734.3510284423828 523.0921173095703 732.6714019775391 516.9319458007812 727.6170349121094 516.9319458007812C708.3385925292969 516.9319458007812 688.4200592041016 570.4809417724609 638.7400360107422 570.4809417724609C620.1566162109375 570.4809417724609 601.9110412597656 556.9638977050781 601.9110412597656 552.6619415283203C601.9110412597656 542.9996032714844 614.8152465820312 539.9487457275391 633.5020446777344 536.0079345703125C747.760009765625 511.9123992919922 846.0720520019531 401.1768798828125 846.0720520019531 270.742919921875C846.0720520019531 257.4095916748047 826.0720520019531 257.4095916748047 826.0720520019531 270.742919921875C826.0720520019531 400.4114074707031 704.7243347167969 519.4649200439453 582.0880432128906 519.4649200439453C571.4445648193359 519.4649200439453 563.6570434570312 528.2488555908203 563.6570434570312 533.8029327392578C563.6570434570312 561.54931640625 608.2700500488281 588.4924011230469 608.2700500488281 594.2149353027344C608.2700500488281 602.7923889160156 571.9610137939453 614.0049438476562 553.6740570068359 614.0049438476562C550.4864654541016 614.0049438476562 546.8750457763672 613.8566436767578 546.8750457763672 611.1109466552734C546.8750457763672 609.3282165527344 554.0700531005859 594.0499114990234 554.0700531005859 579.428955078125C554.0700531005859 538.8491516113281 524.9004669189453 512.9989471435547 488.54705810546875 512.9989471435547C455.65211486816406 512.9989471435547 421.4120635986328 541.8828430175781 421.4120635986328 603.595947265625ZM431.9100646972656 742.3689422607422C461.81443786621094 742.3689422607422 494.70306396484375 712.6400451660156 494.70306396484375 684.8269500732422C494.70306396484375 675.6365509033203 473.9360656738281 671.2963256835938 473.9360656738281 681.6669616699219C473.9360656738281 703.9158325195312 454.65565490722656 721.0529632568359 431.9100646972656 721.0529632568359C420.9975891113281 721.0529632568359 420.51527404785156 742.3689575195312 431.9100646972656 742.3689575195312ZM431.9100646972656 -228.14404296875C443.3666229248047 -228.14404296875 460.4598083496094 -226.87432861328125 469.6900634765625 -216.6650390625C475.6012420654297 -210.1268768310547 479.48399353027344 -198.6890411376953 486.9840545654297 -198.6890411376953C495.96253967285156 -198.6890411376953 516.5710144042969 -203.24703979492188 531.5390472412109 -203.24703979492188C548.5579071044922 -203.24703979492188 556.4805908203125 -184.15518188476562 570.4140472412109 -175.5400390625C587.4668884277344 -164.9961700439453 613.5975189208984 -170.33006286621094 623.9440460205078 -151.90904235839844C627.4296569824219 -145.70323181152344 627.5120391845703 -138.3719482421875 627.5120391845703 -131.27003479003906C627.5120391845703 -122.765625 656.3970336914062 -113.24800109863281 656.3970336914062 -118.12004089355469C656.3970336914062 -150.0343475341797 635.2222442626953 -178.05239868164062 604.5600280761719 -186.96705627441406C597.9944152832031 -188.8759307861328 591.1033020019531 -189.80223083496094 584.9620361328125 -192.8340606689453C569.7910766601562 -200.32369995117188 557.8799743652344 -220.97906494140625 544.2660369873047 -220.97906494140625C533.0395050048828 -220.97906494140625 521.8545684814453 -222.34506225585938 510.62803649902344 -222.34506225585938C498.25439453125 -222.34506225585938 487.7871856689453 -230.03782653808594 477.0580291748047 -236.0890655517578C463.1830749511719 -243.91453552246094 447.84812927246094 -249.1900634765625 431.9100341796875 -249.1900634765625C417.8793640136719 -249.1900634765625 417.8793640136719 -228.14405822753906 431.9100341796875 -228.14405822753906ZM431.9100341796875 885.4349212646484C438.46229553222656 885.4349212646484 436.4590606689453 868.0179138183594 431.9100341796875 868.0179138183594C423.8501281738281 868.0179138183594 406.2140350341797 846.9587707519531 406.2140350341797 826.388916015625C406.2140350341797 811.3245544433594 429.12403869628906 806.9432830810547 429.12403869628906 791.8789215087891C429.12403869628906 787.2660369873047 426.3336181640625 782.9859313964844 422.0520477294922 782.9859313964844C411.02496337890625 782.9859313964844 394.2800750732422 804.1089324951172 372.95404052734375 804.1089324951172C349.40513610839844 804.1089324951172 324.5540313720703 797.4067687988281 324.5540313720703 777.0419311523438C324.5540313720703 771.0768890380859 387.5440368652344 768.65869140625 387.5440368652344 743.7649383544922C387.5440368652344 739.0053558349609 382.36907958984375 736.3899383544922 377.0730438232422 736.3899383544922C368.45811462402344 736.3899383544922 341.259033203125 754.0459442138672 320.91004943847656 754.0459442138672C291.1428527832031 754.0459442138672 257.76805114746094 728.0674896240234 257.76805114746094 694.5109405517578C257.76805114746094 683.5659790039062 254.0517578125 678.1449432373047 246.748046875 678.1449432373047C231.55709838867188 678.1449432373047 235.9414825439453 708.0092620849609 245.96104431152344 730.8369445800781C253.4491729736328 747.8972320556641 276.02915954589844 755.5990142822266 287.1140441894531 763.6979370117188C304.77764892578125 776.6034545898438 311.91697692871094 810.5879516601562 331.4210510253906 818.2869415283203C352.0489807128906 826.4295501708984 365.42552185058594 821.4408721923828 379.0830535888672 830.9319458007812C386.82318115234375 836.3108062744141 388.42091369628906 859.8708801269531 407.4110565185547 873.9309539794922C417.0389862060547 881.0593566894531 422.2518768310547 885.4349517822266 431.9100646972656 885.4349517822266ZM442.40806579589844 603.5959625244141C442.40806579589844 590.9653472900391 421.1590576171875 594.2359619140625 421.1590576171875 603.5959777832031C421.1590576171875 642.7320861816406 370.3917236328125 675.9999847412109 318.42405700683594 675.9999847412109C168.767333984375 675.9999847412109 20.000045776367188 468.48170471191406 20.000045776367188 270.7429962158203C20.000045776367188 257.40966796875 4.57763671875e-05 257.40966796875 4.57763671875e-05 270.7429962158203C4.57763671875e-05 488.3252716064453 145.2725067138672 696.0 317.4200439453125 696.0C402.51914978027344 696.0 442.4080505371094 652.6402282714844 442.4080505371094 603.5960083007812ZM442.4080505371094 603.5960083007812C442.4080505371094 541.8829040527344 408.1679992675781 512.9990081787109 375.27305603027344 512.9990081787109C338.9196472167969 512.9990081787109 309.75006103515625 538.8492126464844 309.75006103515625 579.4290161132812C309.75006103515625 594.0499725341797 316.945068359375 609.3282775878906 316.945068359375 611.1110076904297C316.945068359375 613.8567047119141 313.3336486816406 614.0050048828125 310.14605712890625 614.0050048828125C291.8591003417969 614.0050048828125 255.55006408691406 602.7924499511719 255.55006408691406 594.2149963378906C255.55006408691406 588.4924621582031 300.16307067871094 561.5493774414062 300.16307067871094 533.8029937744141C300.16307067871094 528.2489166259766 292.37554931640625 519.4649810791016 281.73207092285156 519.4649810791016C159.0957794189453 519.4649810791016 37.74806213378906 400.4114685058594 37.74806213378906 270.74298095703125C37.74806213378906 257.40965270996094 17.748062133789062 257.40965270996094 17.748062133789062 270.74298095703125C17.748062133789062 401.17694091796875 116.06010437011719 511.91246032714844 230.3180694580078 536.0079956054688C249.00486755371094 539.9488067626953 261.90907287597656 542.9996643066406 261.90907287597656 552.6620025634766C261.90907287597656 556.9639587402344 243.6634979248047 570.4810028076172 225.080078125 570.4810028076172C175.40005493164062 570.4810028076172 155.4815216064453 516.9320068359375 136.2030792236328 516.9320068359375C131.14871215820312 516.9320068359375 129.46908569335938 523.0921783447266 129.46908569335938 528.9350128173828C129.46908569335938 551.3568115234375 185.20291137695312 591.8811950683594 228.8140869140625 613.4260101318359C262.3237609863281 629.98046875 287.5075225830078 634.8380126953125 337.2970886230469 634.8380126953125C369.7024841308594 634.8380126953125 387.2180938720703 618.1658782958984 387.2180938720703 592.7120056152344C387.2180938720703 580.8659057617188 385.74969482421875 567.1300048828125 377.38409423828125 567.1300048828125C363.4628448486328 567.1300048828125 371.3304443359375 599.4179992675781 349.3800811767578 599.4179992675781C339.08441162109375 599.4179992675781 332.3990783691406 589.1021575927734 332.3990783691406 578.0C332.3990783691406 554.9275817871094 351.3038024902344 536.3619995117188 374.45509338378906 536.3619995117188C405.1822204589844 536.3619995117188 422.40809631347656 569.5078887939453 422.40809631347656 603.5959930419922C422.40809631347656 614.1814422607422 442.40809631347656 611.5451812744141 442.40809631347656 603.5959930419922ZM431.91009521484375 742.3689880371094C443.3048858642578 742.3689880371094 442.82257080078125 721.0529937744141 431.91009521484375 721.0529937744141C409.1645050048828 721.0529937744141 389.88409423828125 703.9158630371094 389.88409423828125 681.6669921875C389.88409423828125 671.2963562011719 369.1170959472656 675.6365814208984 369.1170959472656 684.8269805908203C369.1170959472656 712.6400756835938 402.00572204589844 742.3689727783203 431.91009521484375 742.3689727783203ZM431.91009521484375 -228.14402770996094C445.9407653808594 -228.14402770996094 445.9407653808594 -249.19003295898438 431.91009521484375 -249.19003295898438C415.9720001220703 -249.19003295898438 400.6370544433594 -243.9145050048828 386.76210021972656 -236.0890350341797C376.03294372558594 -230.0377960205078 365.56573486328125 -222.34503173828125 353.1920928955078 -222.34503173828125C341.96556091308594 -222.34503173828125 330.78062438964844 -220.97903442382812 319.55409240722656 -220.97903442382812C305.9401550292969 -220.97903442382812 294.029052734375 -200.32366943359375 278.85809326171875 -192.8340301513672C272.7168273925781 -189.8022003173828 265.8257141113281 -188.8759002685547 259.2601013183594 -186.96702575683594C228.59788513183594 -178.0523681640625 207.423095703125 -150.03431701660156 207.423095703125 -118.12001037597656C207.423095703125 -113.24797058105469 236.30809020996094 -122.76559448242188 236.30809020996094 -131.27000427246094C236.30809020996094 -138.37191772460938 236.39047241210938 -145.7032012939453 239.87608337402344 -151.9090118408203C250.2226104736328 -170.3300323486328 276.3532409667969 -164.9961395263672 293.4060821533203 -175.54000854492188C307.33953857421875 -184.1551513671875 315.26222229003906 -203.24700927734375 332.2810821533203 -203.24700927734375C347.2491149902344 -203.24700927734375 367.8575897216797 -198.6890106201172 376.83607482910156 -198.6890106201172C384.3361358642578 -198.6890106201172 388.21888732910156 -210.12684631347656 394.13006591796875 -216.66500854492188C403.3603210449219 -226.87429809570312 420.45350646972656 -228.14401245117188 431.9100646972656 -228.14401245117188ZM421.4120635986328 -62.110015869140625C421.4120635986328 -49.479400634765625 442.66107177734375 -52.75001525878906 442.66107177734375 -62.11003112792969C442.66107177734375 -101.24613952636719 493.42840576171875 -134.5140380859375 545.3960723876953 -134.5140380859375C695.0527954101562 -134.5140380859375 843.8200836181641 73.00424194335938 843.8200836181641 270.7429504394531C843.8200836181641 284.07627868652344 863.8200836181641 284.07627868652344 863.8200836181641 270.7429504394531C863.8200836181641 53.160675048828125 718.5476226806641 -154.51405334472656 546.4000854492188 -154.51405334472656C461.3009796142578 -154.51405334472656 421.4120788574219 -111.15428161621094 421.4120788574219 -62.11006164550781ZM421.4120788574219 -62.11006164550781C421.4120788574219 -0.3969573974609375 455.6521301269531 28.4869384765625 488.5470733642578 28.4869384765625C524.9004821777344 28.4869384765625 554.070068359375 2.6367340087890625 554.070068359375 -37.94306945800781C554.070068359375 -52.56402587890625 546.8750610351562 -67.84233093261719 546.8750610351562 -69.62506103515625C546.8750610351562 -72.37075805664062 550.4864807128906 -72.51905822753906 553.674072265625 -72.51905822753906C571.9610290527344 -72.51905822753906 608.2700653076172 -61.30650329589844 608.2700653076172 -52.72904968261719C608.2700653076172 -47.00651550292969 563.6570587158203 -20.063430786132812 563.6570587158203 7.682952880859375C563.6570587158203 13.237030029296875 571.444580078125 22.020965576171875 582.0880584716797 22.020965576171875C704.7243499755859 22.020965576171875 826.0720672607422 141.07447814941406 826.0720672607422 270.7429656982422C826.0720672607422 284.0762939453125 846.0720672607422 284.0762939453125 846.0720672607422 270.7429656982422C846.0720672607422 140.3090057373047 747.7600250244141 29.573486328125 633.5020599365234 5.4779510498046875C614.8152618408203 1.537139892578125 601.9110565185547 -1.5137176513671875 601.9110565185547 -11.176055908203125C601.9110565185547 -15.478012084960938 620.1566314697266 -28.99505615234375 638.7400512695312 -28.99505615234375C688.4200744628906 -28.99505615234375 708.3386077880859 24.553939819335938 727.6170501708984 24.553939819335938C732.6714172363281 24.553939819335938 734.3510437011719 18.393768310546875 734.3510437011719 12.550933837890625C734.3510437011719 -9.870864868164062 678.6172180175781 -50.39524841308594 635.0060424804688 -71.9400634765625C601.4963684082031 -88.49452209472656 576.3126068115234 -93.35206604003906 526.5230407714844 -93.35206604003906C494.1176452636719 -93.35206604003906 476.60203552246094 -76.679931640625 476.60203552246094 -51.22605895996094C476.60203552246094 -39.37995910644531 478.0704345703125 -25.644058227539062 486.43603515625 -25.644058227539062C500.35728454589844 -25.644058227539062 492.48968505859375 -57.93205261230469 514.4400482177734 -57.93205261230469C524.7357177734375 -57.93205261230469 531.4210510253906 -47.6162109375 531.4210510253906 -36.51405334472656C531.4210510253906 -13.441635131835938 512.5163269042969 5.1239471435546875 489.3650360107422 5.1239471435546875C458.6379089355469 5.1239471435546875 441.4120330810547 -28.021942138671875 441.4120330810547 -62.11004638671875C441.4120330810547 -72.69549560546875 421.4120330810547 -70.05923461914062 421.4120330810547 -62.11004638671875ZM442.4080352783203 -62.11004638671875C442.4080352783203 -111.15426635742188 402.5191345214844 -154.5140380859375 317.42002868652344 -154.5140380859375C145.27249145507812 -154.5140380859375 3.0517578125e-05 53.16069030761719 3.0517578125e-05 270.7429656982422C3.0517578125e-05 284.0762939453125 20.000030517578125 284.0762939453125 20.000030517578125 270.7429656982422C20.000030517578125 73.00425720214844 168.76731872558594 -134.51402282714844 318.4240417480469 -134.51402282714844C370.39170837402344 -134.51402282714844 421.15904235839844 -101.24612426757812 421.15904235839844 -62.110015869140625C421.15904235839844 -52.75 442.4080505371094 -49.47938537597656 442.4080505371094 -62.11000061035156ZM442.4080505371094 -62.11000061035156C442.4080505371094 -70.05918884277344 422.4080505371094 -72.69544982910156 422.4080505371094 -62.11000061035156C422.4080505371094 -28.021896362304688 405.1821746826172 5.123992919921875 374.4550476074219 5.123992919921875C351.3037567138672 5.123992919921875 332.39903259277344 -13.44158935546875 332.39903259277344 -36.514007568359375C332.39903259277344 -47.61616516113281 339.08436584472656 -57.9320068359375 349.3800354003906 -57.9320068359375C371.3303985595703 -57.9320068359375 363.4627990722656 -25.644012451171875 377.38404846191406 -25.644012451171875C385.74964904785156 -25.644012451171875 387.2180480957031 -39.379913330078125 387.2180480957031 -51.22601318359375C387.2180480957031 -76.67988586425781 369.7024383544922 -93.35202026367188 337.2970428466797 -93.35202026367188C287.5074768066406 -93.35202026367188 262.32371520996094 -88.49447631835938 228.8140411376953 -71.94001770019531C185.20286560058594 -50.39520263671875 129.4690399169922 -9.870819091796875 129.4690399169922 12.550979614257812C129.4690399169922 18.393814086914062 131.14866638183594 24.553985595703125 136.20303344726562 24.553985595703125C155.48147583007812 24.553985595703125 175.40000915527344 -28.995010375976562 225.0800323486328 -28.995010375976562C243.6634521484375 -28.995010375976562 261.9090270996094 -15.47796630859375 261.9090270996094 -11.176010131835938C261.9090270996094 -1.513671875 249.00482177734375 1.5371856689453125 230.31802368164062 5.477996826171875C116.06005859375 29.573532104492188 17.748016357421875 140.30905151367188 17.748016357421875 270.7430114746094C17.748016357421875 284.0763397216797 37.748016357421875 284.0763397216797 37.748016357421875 270.7430114746094C37.748016357421875 141.07452392578125 159.09573364257812 22.021011352539062 281.7320251464844 22.021011352539062C292.37550354003906 22.021011352539062 300.16302490234375 13.237075805664062 300.16302490234375 7.6829986572265625C300.16302490234375 -20.063385009765625 255.55001831054688 -47.0064697265625 255.55001831054688 -52.72900390625C255.55001831054688 -61.30645751953125 291.8590545654297 -72.51901245117188 310.14601135253906 -72.51901245117188C313.33360290527344 -72.51901245117188 316.9450225830078 -72.37071228027344 316.9450225830078 -69.62501525878906C316.9450225830078 -67.84228515625 309.75001525878906 -52.56398010253906 309.75001525878906 -37.943023681640625C309.75001525878906 2.63677978515625 338.9196014404297 28.486984252929688 375.27301025390625 28.486984252929688C408.16795349121094 28.486984252929688 442.4080047607422 -0.39691162109375 442.4080047607422 -62.110015869140625Z"/></svg>
