<svg xmlns="http://www.w3.org/2000/svg" viewBox="-12.32 -213.32 928.64 976.64"><path d="M105 487Q150 553 214 597Q278 641 360 659Q393 667 413.5 678.5Q434 690 443.0 699.5Q452 709 452 711Q452 709 461.0 699.5Q470 690 490.5 678.5Q511 667 544 659Q627 640 689 597Q755 553 798 487Q840 426 852.0 365.5Q864 305 864 275Q864 245 852.0 184.0Q840 123 798 62Q755 -2 689 -48Q628 -90 544 -110Q511 -118 490.5 -129.0Q470 -140 461.0 -149.5Q452 -159 452 -161Q452 -159 443.0 -149.5Q434 -140 413.5 -129.0Q393 -118 360 -110Q278 -91 214 -48Q150 -2 105 62Q64 123 52.0 184.0Q40 245 40 275Q40 311 51.5 368.5Q63 426 105 487ZM248 10Q313 -21 378 -32Q383 -16 397.5 -9.0Q412 -2 426 -1Q427 17 433.0 28.5Q439 40 444.5 45.5Q450 51 452 52Q454 51 459.5 45.5Q465 40 471.0 28.5Q477 17 478 -1Q492 -2 506.5 -9.0Q521 -16 526 -32Q591 -21 656 10Q720 41 750.0 80.0Q780 119 793 148Q740 157 701 212Q687 230 671.0 244.0Q655 258 643.5 265.5Q632 273 629 275Q632 277 643.5 284.0Q655 291 671.0 305.0Q687 319 701 338Q725 370 749.5 384.5Q774 399 793 402Q780 431 750.0 469.5Q720 508 656 539Q592 571 526 582Q521 566 506.5 559.0Q492 552 478 551Q477 533 471.0 521.5Q465 510 459.5 504.5Q454 499 452 498Q450 499 444.5 504.5Q439 510 433.0 521.5Q427 533 426 551Q412 552 397.5 559.0Q383 566 378 582Q312 571 248 539Q184 508 154.0 469.5Q124 431 111 402Q130 399 154.5 384.5Q179 370 203 338Q217 319 233.0 305.0Q249 291 260.5 284.0Q272 277 275 275Q272 273 260.5 265.5Q249 258 233.0 244.0Q217 230 203 212Q162 157 111 148Q124 119 154.0 80.0Q184 41 248 10ZM121 189Q123 190 130.0 194.5Q137 199 143.0 208.0Q149 217 148 229Q169 226 186 244Q194 252 207.5 262.0Q221 272 226 275Q221 278 207.5 288.0Q194 298 186 306Q176 317 165.5 319.5Q155 322 148 320Q149 332 143.0 341.5Q137 351 130.0 355.5Q123 360 121 361Q121 358 114.0 346.0Q107 334 90 317Q90 318 101.5 314.5Q113 311 122.0 301.5Q131 292 131 275Q131 258 122.0 248.5Q113 239 101.5 235.5Q90 232 90 233Q107 215 114.0 203.0Q121 191 121 189ZM718 244Q735 226 756 229Q755 217 761.0 208.0Q767 199 774.0 194.5Q781 190 783 189Q783 191 790.0 203.5Q797 216 814 233Q814 232 802.5 235.5Q791 239 782.0 248.0Q773 257 773 275Q773 292 782.0 301.5Q791 311 802.5 314.5Q814 318 814 317Q797 334 790.0 346.0Q783 358 783 361Q781 360 774.0 355.5Q767 351 761.0 341.5Q755 332 756 320Q749 322 738.5 319.5Q728 317 718 306Q710 298 696.5 288.0Q683 278 678 275Q683 272 696.5 262.0Q710 252 718 244Z"/></svg>
