<svg xmlns="http://www.w3.org/2000/svg" viewBox="-37 -336 1197 1288" class="ayah-marker" data-marker="003-semibold"><g data-part="fill-base" style="fill:var(--fill-base,currentColor)" /><g data-part="fill-1" style="fill:var(--fill-1,currentColor)" /><g data-part="fill-2" style="fill:var(--fill-2,currentColor)" /><g data-part="fill-3" style="fill:var(--fill-3,currentColor)" /><g data-part="ink-base" style="fill:var(--ink-base,currentColor)"><path d="M562 -109Q498 -109 438.5 -95.0Q379 -81 305 -48Q254 -25 211.0 -9.5Q168 6 128.0 17.0Q88 28 43 36Q32 38 32 48Q32 49 32.0 49.5Q32 50 32 50Q40 118 44.0 172.5Q48 227 50.0 278.0Q52 329 52 386Q52 440 50.0 488.5Q48 537 44.0 593.0Q40 649 32 723Q32 724 32.0 724.0Q32 724 32 724Q32 736 43 738Q111 751 171.0 769.5Q231 788 305 821Q380 854 439.5 868.5Q499 883 562 883Q625 883 685.0 868.5Q745 854 819 821Q870 799 912.0 783.5Q954 768 995.0 757.0Q1036 746 1081 738Q1091 736 1091 724Q1091 724 1091.0 724.0Q1091 724 1091 723Q1084 656 1079.5 601.0Q1075 546 1073.5 495.0Q1072 444 1072 386Q1072 333 1073.5 284.5Q1075 236 1079.5 180.5Q1084 125 1091 50Q1091 50 1091.0 49.5Q1091 49 1091 48Q1091 38 1081 36Q1012 23 952.0 4.0Q892 -15 819 -48Q744 -81 684.5 -95.0Q625 -109 562 -109ZM562 -267Q498 -267 438.5 -252.5Q379 -238 305 -205Q254 -182 211.5 -166.5Q169 -151 128.5 -140.0Q88 -129 43 -121L88 -77Q150 -89 205.0 -106.5Q260 -124 330 -155Q399 -186 452.0 -198.5Q505 -211 562 -211Q618 -211 671.0 -198.5Q724 -186 793 -155Q863 -124 918.5 -106.5Q974 -89 1035 -77L1081 -121Q1012 -134 952.0 -153.0Q892 -172 819 -205Q744 -238 684.5 -252.5Q625 -267 562 -267ZM562 -54Q618 -54 671.5 -41.5Q725 -29 793 2Q862 32 918.0 50.0Q974 68 1035 80Q1028 146 1024.0 196.0Q1020 246 1018.5 291.0Q1017 336 1017 386Q1017 437 1018.5 482.0Q1020 527 1024.0 577.5Q1028 628 1035 693Q974 705 918.0 722.5Q862 740 793 771Q725 802 671.5 814.5Q618 827 562 827Q505 827 451.5 814.5Q398 802 330 771Q261 740 205.5 722.5Q150 705 88 693Q95 628 99.0 577.5Q103 527 104.5 482.0Q106 437 106 386Q106 336 104.5 291.0Q103 246 99.0 196.0Q95 146 88 80Q150 68 205.5 50.0Q261 32 330 2Q398 -29 451.5 -41.5Q505 -54 562 -54Z" /></g><g data-part="ink-1" style="fill:var(--ink-1,currentColor)" /><g data-part="ink-2" style="fill:var(--ink-2,currentColor)" /></svg>