<svg xmlns="http://www.w3.org/2000/svg" viewBox="-52.46 -367.46 1227.92 1333.92" class="ayah-marker" data-marker="003-extrabold"><g data-part="fill-base" style="fill:var(--fill-base,currentColor)" /><g data-part="fill-1" style="fill:var(--fill-1,currentColor)" /><g data-part="fill-2" style="fill:var(--fill-2,currentColor)" /><g data-part="fill-3" style="fill:var(--fill-3,currentColor)" /><g data-part="ink-base" style="fill:var(--ink-base,currentColor)"><path d="M562 -122Q497 -122 435.5 -107.5Q374 -93 298 -59Q246 -36 202.5 -19.5Q159 -3 118.0 8.0Q77 19 30 27Q19 29 19 39Q19 40 19.0 40.5Q19 41 19 41Q27 111 31.0 166.5Q35 222 37.0 275.0Q39 328 39 386Q39 443 37.0 493.5Q35 544 31.0 601.0Q27 658 19 732Q19 733 19.0 733.0Q19 733 19 733Q19 745 30 747Q100 760 161.5 779.0Q223 798 298 832Q376 866 437.0 880.5Q498 895 562 895Q626 895 688.0 880.5Q750 866 825 832Q877 809 920.5 793.0Q964 777 1005.5 766.0Q1047 755 1093 747Q1104 745 1104 733Q1104 733 1104.0 733.0Q1104 733 1104 732Q1097 663 1092.5 607.0Q1088 551 1086.0 498.0Q1084 445 1084 386Q1084 330 1086.0 279.5Q1088 229 1092.5 172.5Q1097 116 1104 41Q1104 41 1104.0 40.5Q1104 40 1104 39Q1104 29 1093 27Q1023 14 961.5 -5.5Q900 -25 825 -59Q747 -93 686.5 -107.5Q626 -122 562 -122ZM562 -296Q497 -296 435.5 -281.0Q374 -266 298 -232Q245 -208 202.0 -192.0Q159 -176 118.0 -165.0Q77 -154 30 -146L88 -94Q150 -106 205.5 -123.5Q261 -141 330 -171Q398 -202 451.5 -215.0Q505 -228 562 -228Q618 -228 671.5 -215.0Q725 -202 793 -171Q862 -141 918.0 -123.5Q974 -106 1035 -94L1093 -146Q1023 -159 961.5 -178.5Q900 -198 825 -232Q747 -266 686.5 -281.0Q626 -296 562 -296ZM562 -54Q618 -54 671.5 -41.5Q725 -29 793 2Q862 32 918.0 50.0Q974 68 1035 80Q1028 146 1024.0 196.0Q1020 246 1018.5 291.0Q1017 336 1017 386Q1017 437 1018.5 482.0Q1020 527 1024.0 577.5Q1028 628 1035 693Q974 705 918.0 722.5Q862 740 793 771Q725 802 671.5 814.5Q618 827 562 827Q505 827 451.5 814.5Q398 802 330 771Q261 740 205.5 722.5Q150 705 88 693Q95 628 99.0 577.5Q103 527 104.5 482.0Q106 437 106 386Q106 336 104.5 291.0Q103 246 99.0 196.0Q95 146 88 80Q150 68 205.5 50.0Q261 32 330 2Q398 -29 451.5 -41.5Q505 -54 562 -54Z" /></g><g data-part="ink-1" style="fill:var(--ink-1,currentColor)" /><g data-part="ink-2" style="fill:var(--ink-2,currentColor)" /><g data-part="ink-3" style="fill:var(--ink-3,currentColor)" /><g data-part="mark-1" style="fill:var(--mark-1,currentColor)" /><g data-part="mark-2" style="fill:var(--mark-2,currentColor)" /><g data-part="mark-3" style="fill:var(--mark-3,currentColor)" /></svg>