<svg xmlns="http://www.w3.org/2000/svg" viewBox="6.8 -301.2 1142.4 1142.4"><style>@media(prefers-color-scheme:dark){.ink{fill:#4fc0b2}}</style><path class="ink" fill="#0b7771" d="M578 -240Q469 -240 375.5 -201.0Q282 -162 214.0 -94.0Q146 -26 107.0 67.5Q68 161 68 270Q68 379 107.0 472.5Q146 566 214.0 634.0Q282 702 375.5 741.0Q469 780 578 780Q687 780 780.5 741.0Q874 702 942.0 634.0Q1010 566 1049.0 472.5Q1088 379 1088 270Q1088 161 1049.0 67.5Q1010 -26 942.0 -94.0Q874 -162 780.5 -201.0Q687 -240 578 -240Z M574 -171Q560 -171 551.0 -162.5Q542 -154 542 -137Q542 -119 551.0 -110.5Q560 -102 574 -102H581Q595 -102 604.0 -110.5Q613 -119 613 -137Q613 -154 604.0 -162.5Q595 -171 581 -171Z M590 -204Q692 -204 777.5 -169.0Q863 -134 925.5 -71.0Q988 -8 1022.5 79.0Q1057 166 1057 270Q1057 374 1022.5 461.0Q988 548 925.5 611.0Q863 674 777.5 709.0Q692 744 590 744H565Q463 744 377.5 709.0Q292 674 229.5 611.0Q167 548 132.5 461.0Q98 374 98 270Q98 166 132.5 79.0Q167 -8 229.5 -71.0Q292 -134 377.5 -169.0Q463 -204 565 -204Z M574 642Q560 642 551.0 650.5Q542 659 542 677Q542 694 551.0 702.5Q560 711 574 711H581Q595 711 604.0 702.5Q613 694 613 677Q613 659 604.0 650.5Q595 642 581 642Z"/></svg>
