<svg xmlns="http://www.w3.org/2000/svg" fill="#0b7771" viewBox="-84.7279 -602.172 1725.91 2140.34"><path d="M1501 468Q1525 435 1525.5 395.5Q1526 356 1512.0 313.0Q1498 270 1474.5 225.5Q1451 181 1427.0 137.5Q1403 94 1383.5 53.5Q1364 13 1357.5 -21.5Q1351 -56 1363.0 -83.5Q1375 -111 1415 -128Q1391 -160 1351.0 -177.0Q1311 -194 1270.5 -192.5Q1230 -191 1196.0 -169.0Q1162 -147 1150 -100Q1150 -145 1130.5 -171.0Q1111 -197 1081.5 -214.5Q1052 -232 1016.5 -245.5Q981 -259 949 -280Q943 -349 916.5 -395.0Q890 -441 853.0 -464.0Q816 -487 774.5 -487.5Q733 -488 696.5 -465.0Q660 -442 634.0 -395.5Q608 -349 603 -280Q570 -259 535.5 -245.5Q501 -232 472.0 -214.5Q443 -197 424.0 -171.0Q405 -145 403 -100Q391 -147 358.5 -169.0Q326 -191 286.5 -192.5Q247 -194 207.5 -177.0Q168 -160 142 -128Q182 -112 193.5 -84.5Q205 -57 198.5 -22.5Q192 12 172.0 52.5Q152 93 128.0 137.0Q104 181 80.5 225.5Q57 270 43.0 313.0Q29 356 30.0 395.5Q31 435 56 468Q32 501 31.5 540.5Q31 580 45.0 623.0Q59 666 82.5 710.5Q106 755 130.0 798.5Q154 842 173.5 882.5Q193 923 199.5 957.5Q206 992 194.0 1019.5Q182 1047 142 1064Q166 1096 206.0 1113.0Q246 1130 286.5 1128.5Q327 1127 361.0 1104.5Q395 1082 407 1036Q407 1081 426.5 1107.0Q446 1133 475.5 1150.5Q505 1168 540.5 1181.5Q576 1195 608 1216Q614 1285 640.5 1331.0Q667 1377 704.0 1400.0Q741 1423 782.5 1423.5Q824 1424 860.5 1401.0Q897 1378 923.0 1331.5Q949 1285 954 1216Q987 1195 1021.5 1181.5Q1056 1168 1085.0 1150.5Q1114 1133 1133.0 1107.0Q1152 1081 1154 1036Q1166 1082 1198.5 1104.5Q1231 1127 1270.5 1128.5Q1310 1130 1349.5 1113.0Q1389 1096 1415 1064Q1376 1047 1364.0 1020.0Q1352 993 1358.5 958.0Q1365 923 1384.5 882.5Q1404 842 1428.0 798.5Q1452 755 1476.0 710.5Q1500 666 1513.5 623.0Q1527 580 1526.5 540.5Q1526 501 1501 468ZM148 468Q117 448 111.5 418.5Q106 389 115.5 354.0Q125 319 146.5 279.5Q168 240 191.5 198.5Q215 157 237.0 115.0Q259 73 269.5 33.5Q280 -6 275.5 -42.5Q271 -79 242 -109Q270 -119 297.5 -106.0Q325 -93 347.5 -67.5Q370 -42 385.0 -10.0Q400 22 403 50Q416 -5 444.0 -35.5Q472 -66 508.0 -86.5Q544 -107 584.0 -124.0Q624 -141 661.5 -170.0Q699 -199 729.5 -247.0Q760 -295 777 -376Q794 -295 825.0 -247.0Q856 -199 893.5 -170.0Q931 -141 971.0 -124.0Q1011 -107 1047.0 -86.5Q1083 -66 1110.5 -35.5Q1138 -5 1150 50Q1155 23 1170.0 -9.0Q1185 -41 1206.5 -66.5Q1228 -92 1255.0 -105.5Q1282 -119 1310 -109Q1282 -79 1278.5 -43.0Q1275 -7 1286.0 32.5Q1297 72 1319.0 114.0Q1341 156 1365.0 197.5Q1389 239 1410.5 278.5Q1432 318 1441.5 353.5Q1451 389 1445.5 418.0Q1440 447 1409 468Q1440 488 1445.5 517.5Q1451 547 1441.5 582.0Q1432 617 1410.5 656.5Q1389 696 1365.5 737.5Q1342 779 1320.0 821.0Q1298 863 1287.5 902.5Q1277 942 1281.5 978.5Q1286 1015 1315 1045Q1287 1055 1259.5 1041.5Q1232 1028 1209.5 1002.5Q1187 977 1172.0 945.0Q1157 913 1154 886Q1141 941 1113.0 971.5Q1085 1002 1049.0 1022.5Q1013 1043 973.0 1060.0Q933 1077 895.5 1106.0Q858 1135 827.5 1183.0Q797 1231 780 1312Q763 1231 732.0 1183.0Q701 1135 663.5 1106.0Q626 1077 586.0 1060.0Q546 1043 510.0 1022.5Q474 1002 446.5 971.5Q419 941 407 886Q402 913 387.0 945.0Q372 977 350.0 1002.5Q328 1028 301.5 1041.5Q275 1055 247 1045Q275 1015 278.5 979.0Q282 943 271.0 903.5Q260 864 238.0 822.0Q216 780 192.0 738.5Q168 697 146.5 657.5Q125 618 115.5 582.5Q106 547 111.5 518.0Q117 489 148 468Z"/></svg>
